<?xml version="1.0" standalone="no"?>
<!DOCTYPE svg PUBLIC "-//W3C//DTD SVG 20010904//EN"
 "http://www.w3.org/TR/2001/REC-SVG-20010904/DTD/svg10.dtd">
<svg version="1.0" xmlns="http://www.w3.org/2000/svg"
 width="1538.000000pt" height="1470.000000pt" viewBox="0 0 1538.000000 1470.000000"
 preserveAspectRatio="xMidYMid meet">

<g transform="translate(0.000000,1470.000000) scale(0.100000,-0.100000)"
fill="#000000" stroke="none">
<path d="M8719 13865 c-58 -31 -43 -107 25 -127 23 -6 42 -13 44 -14 3 -2
-113 -416 -244 -876 -5 -15 -9 -15 -46 -2 -50 17 -88 3 -102 -39 -17 -49 8
-80 79 -95 33 -7 110 -30 172 -49 107 -35 113 -36 137 -20 33 22 43 63 25 96
-11 19 -28 29 -68 37 -29 7 -55 15 -58 18 -3 3 45 185 108 405 63 220 116 398
117 396 2 -2 24 -194 48 -427 36 -352 47 -427 62 -448 20 -26 57 -36 97 -26
15 4 123 129 296 340 150 184 275 334 276 332 3 -2 -317 -968 -323 -975 -2 -2
-21 4 -44 13 -79 32 -130 12 -130 -50 0 -47 19 -63 103 -84 113 -28 208 -69
423 -181 105 -54 199 -99 208 -99 9 0 24 16 33 35 32 66 23 74 -227 202 -123
63 -227 117 -230 119 -3 3 76 246 175 540 166 494 182 534 200 528 54 -17 83
-16 104 5 24 24 27 68 8 95 -9 13 -49 26 -128 42 -117 24 -157 22 -198 -10 -8
-6 -130 -156 -272 -333 -142 -176 -263 -324 -268 -328 -7 -4 -11 5 -11 22 0
15 -18 204 -39 420 -42 420 -47 442 -103 471 -30 15 -208 82 -217 82 -3 -1
-18 -7 -32 -15z"/>
<path d="M7320 13530 c-190 -22 -309 -153 -271 -297 26 -96 105 -140 320 -178
145 -26 213 -51 225 -80 22 -58 -18 -111 -107 -141 -60 -20 -164 -23 -223 -6
-38 11 -42 16 -48 53 -9 55 -46 89 -98 89 -85 0 -127 -94 -75 -171 33 -50 132
-97 235 -111 265 -38 486 100 458 286 -18 119 -106 172 -361 215 -135 23 -183
43 -192 79 -14 57 50 114 149 131 77 13 132 3 136 -24 16 -100 109 -137 173
-69 30 31 33 97 6 137 -22 33 -101 75 -159 82 -86 12 -104 12 -168 5z"/>
<path d="M6583 13452 c-68 -28 -127 -75 -166 -135 -20 -30 -37 -60 -37 -66 0
-6 -4 -11 -9 -11 -5 0 -12 21 -16 46 -3 25 -15 54 -26 65 -22 22 -46 23 -148
5 -55 -10 -80 -20 -93 -36 -25 -31 -22 -62 7 -90 24 -22 29 -23 78 -13 28 6
53 10 53 9 7 -7 122 -571 118 -577 -3 -5 -21 -9 -40 -9 -42 0 -74 -29 -74 -68
0 -58 50 -75 131 -47 24 9 84 23 134 31 121 20 121 20 135 53 24 60 -25 101
-96 81 -25 -7 -46 -11 -47 -9 -2 2 -18 72 -35 154 -30 144 -31 153 -18 216 19
88 65 177 115 222 47 42 63 45 98 17 31 -24 63 -25 103 -5 34 18 50 43 50 80
0 34 -25 82 -49 95 -30 15 -121 11 -168 -8z"/>
<path d="M5514 13150 c-173 -56 -277 -203 -276 -389 1 -177 89 -319 246 -396
200 -99 441 -20 542 177 36 70 32 103 -14 127 -34 18 -75 -2 -96 -47 -29 -61
-72 -106 -128 -137 -75 -42 -168 -42 -250 -2 -57 28 -125 95 -110 109 4 4 124
50 267 103 286 106 310 120 310 184 0 74 -110 206 -214 257 -76 37 -189 43
-277 14z m233 -136 c38 -22 103 -94 103 -113 0 -9 -472 -182 -479 -176 -10 11
-5 110 8 149 48 141 241 215 368 140z"/>
<path d="M4555 13076 c-80 -80 -7 -203 103 -174 36 10 72 57 72 96 0 31 -26
79 -49 92 -37 19 -100 12 -126 -14z"/>
<path d="M10121 13025 c-83 -26 -125 -93 -97 -158 17 -42 41 -57 93 -57 30 0
46 7 66 28 15 15 27 36 27 45 0 20 27 22 83 6 46 -12 110 -68 127 -109 17 -40
8 -124 -18 -183 l-22 -49 -47 41 c-195 172 -420 166 -516 -14 -27 -50 -29
-155 -5 -200 28 -51 80 -97 148 -129 58 -27 75 -30 165 -30 l100 -1 15 -40
c12 -31 30 -50 80 -82 37 -24 77 -43 93 -43 34 0 67 32 67 65 0 33 -42 75 -75
75 -14 0 -25 6 -25 14 0 7 36 91 79 187 118 260 131 324 91 433 -56 148 -273
250 -429 201z m36 -470 c37 -16 81 -47 114 -81 53 -53 53 -55 39 -81 -43 -76
-261 -69 -348 11 -60 55 -48 117 33 168 38 24 82 19 162 -17z"/>
<path d="M4665 12764 c-33 -14 -68 -33 -77 -42 -24 -21 -23 -77 2 -102 25 -25
57 -25 95 0 17 11 35 20 41 20 5 0 70 -113 144 -251 125 -237 132 -253 115
-265 -11 -8 -24 -14 -31 -14 -17 0 -54 -48 -54 -70 0 -29 39 -70 67 -70 14 0
55 18 91 41 35 23 94 53 129 69 36 15 73 34 84 43 24 21 25 78 2 99 -32 27
-51 27 -99 2 -25 -14 -47 -23 -49 -22 -1 2 -64 122 -141 268 -76 146 -151 277
-166 293 -34 35 -73 35 -153 1z"/>
<path d="M3940 12737 c-36 -19 -74 -47 -85 -61 -18 -25 -18 -29 -4 -54 8 -15
27 -31 41 -36 22 -8 34 -5 68 19 24 17 44 24 49 19 14 -15 510 -772 513 -782
2 -6 -16 -24 -39 -41 -47 -34 -54 -61 -27 -99 25 -37 69 -29 137 24 32 26 88
63 125 83 38 20 73 48 82 64 13 24 13 30 0 55 -22 39 -69 42 -115 7 l-34 -27
-274 414 c-150 227 -280 419 -289 426 -35 29 -80 25 -148 -11z"/>
<path d="M10989 12658 c-63 -21 -56 -99 12 -137 27 -16 37 -27 31 -34 -5 -7
-77 -119 -162 -249 l-153 -237 -36 25 c-42 29 -82 31 -104 6 -18 -19 -22 -59
-9 -79 4 -6 41 -30 82 -54 41 -23 100 -62 131 -85 58 -46 96 -55 123 -29 39
39 24 90 -35 120 -21 11 -29 21 -25 32 4 9 41 69 83 133 84 128 121 161 232
206 68 28 162 35 199 15 14 -7 22 -21 22 -37 0 -85 117 -124 170 -57 13 17 20
41 20 71 0 38 -5 50 -37 82 -73 72 -221 101 -336 66 -26 -8 -47 -12 -47 -10 0
2 12 25 27 52 37 67 29 87 -58 148 -88 60 -97 63 -130 52z"/>
<path d="M3673 12066 c-201 -65 -320 -276 -269 -475 35 -136 124 -247 243
-304 64 -30 74 -32 183 -32 103 0 121 3 170 26 130 61 227 197 237 333 7 77
-10 106 -59 106 -41 0 -64 -29 -76 -96 -14 -82 -25 -107 -69 -155 -80 -89
-212 -115 -320 -64 -29 13 -53 29 -53 34 0 6 94 91 209 190 115 99 217 191
225 203 45 64 -5 136 -142 205 -63 32 -84 37 -155 40 -51 2 -98 -2 -124 -11z
m147 -117 c41 -9 130 -57 130 -69 0 -3 -87 -81 -194 -172 l-194 -167 -18 37
c-23 47 -30 149 -14 198 15 43 90 128 135 151 63 33 90 37 155 22z"/>
<path d="M11727 12000 c-221 -56 -380 -282 -346 -492 14 -85 53 -159 116 -219
61 -58 115 -84 193 -94 l55 -8 -55 -49 c-145 -129 -303 -140 -405 -26 -57 62
-72 118 -32 118 31 0 64 25 83 62 35 68 -18 148 -98 148 -33 0 -47 -7 -78 -38
-65 -64 -77 -173 -31 -276 26 -61 114 -152 175 -183 132 -67 295 -43 443 66
23 17 147 146 274 286 127 140 235 255 239 255 3 0 17 -12 31 -26 31 -34 58
-43 90 -32 58 20 57 87 -3 129 -18 12 -50 38 -71 56 -40 36 -71 41 -104 18
-20 -14 -21 -13 -28 22 -19 101 -107 209 -211 258 -63 30 -171 41 -237 25z
m199 -158 c80 -41 149 -142 156 -229 3 -40 0 -44 -120 -177 l-123 -136 -58 0
c-73 0 -146 35 -199 95 -44 50 -62 100 -62 172 0 128 95 250 230 294 40 13
133 3 176 -19z"/>
<path d="M2597 11519 c-25 -15 -38 -54 -27 -81 5 -13 56 -63 114 -113 57 -49
105 -93 105 -97 1 -5 -14 -25 -33 -45 -44 -50 -52 -77 -32 -108 27 -41 71 -34
126 20 l45 44 200 -176 c110 -97 214 -182 232 -189 18 -8 58 -14 90 -14 75 0
127 29 170 93 57 85 54 148 -10 244 -29 43 -36 48 -74 51 -33 2 -44 -1 -57
-20 -22 -31 -20 -56 8 -93 40 -52 42 -78 8 -116 -26 -29 -32 -32 -60 -23 -30
8 -412 336 -412 352 0 4 29 39 64 79 36 40 67 82 71 94 10 29 -24 73 -59 77
-26 3 -51 -19 -157 -140 l-24 -27 -113 99 c-113 100 -136 112 -175 89z"/>
<path d="M12555 11345 c-33 -32 -31 -57 7 -101 28 -31 30 -38 17 -48 -268
-203 -392 -302 -408 -325 -34 -48 -53 -138 -41 -200 28 -146 131 -243 286
-267 l41 -6 -23 -26 c-36 -38 -32 -89 13 -167 45 -79 80 -99 121 -68 40 29 41
72 3 115 l-29 34 253 193 c139 107 258 204 264 218 19 41 12 67 -35 141 -59
92 -101 107 -139 48 -20 -29 -14 -54 22 -96 14 -17 24 -32 22 -34 -2 -2 -76
-58 -164 -126 l-160 -122 -86 4 c-109 5 -178 40 -224 113 -37 60 -41 130 -10
165 11 12 111 92 221 176 209 160 233 186 220 240 -9 35 -81 141 -106 154 -28
15 -38 13 -65 -15z"/>
<path d="M3629 10715 c-95 -97 -176 -181 -180 -187 -5 -8 -221 26 -716 110
-695 119 -708 121 -733 103 -14 -10 -26 -27 -28 -38 -2 -11 116 -225 287 -518
l290 -498 -29 -36 c-17 -19 -30 -46 -30 -59 0 -31 43 -72 75 -72 31 0 53 21
93 91 17 30 54 81 81 114 28 33 56 70 63 83 25 49 -29 111 -86 96 -16 -4 -35
-23 -52 -51 l-26 -45 -17 29 c-10 15 -34 57 -53 93 l-36 65 154 220 c85 121
159 227 163 235 8 13 41 10 253 -19 133 -19 245 -35 247 -37 2 -2 -10 -19 -28
-39 -39 -45 -41 -86 -5 -114 33 -26 66 -27 86 -3 9 9 44 60 79 112 45 66 118
150 247 282 123 125 181 191 176 200 -19 34 -50 58 -75 58 -22 0 -60 -33 -200
-175z m-1174 -175 c127 -22 238 -44 248 -48 15 -6 -3 -35 -114 -190 -72 -101
-132 -182 -134 -180 -9 12 -255 437 -261 452 -6 15 -3 17 12 13 10 -3 123 -24
249 -47z"/>
<path d="M8310 10538 c-25 -7 -65 -40 -138 -116 l-102 -106 -48 52 c-47 51
-117 91 -159 92 -34 0 -78 -44 -128 -130 -25 -44 -50 -80 -55 -80 -5 0 -21 22
-34 49 -27 53 -102 111 -142 111 -46 0 -159 -51 -197 -88 -58 -56 -104 -146
-128 -252 -12 -52 -23 -97 -25 -99 -2 -2 -28 19 -58 47 -79 71 -136 97 -216
97 -53 0 -74 -5 -112 -28 -25 -15 -56 -39 -67 -53 -34 -43 -63 -134 -68 -216
-4 -52 -10 -78 -18 -78 -7 0 -57 23 -111 52 -85 45 -107 52 -156 53 -103 0
-139 -47 -168 -215 -10 -62 -22 -116 -27 -121 -4 -4 -46 21 -93 58 -119 92
-177 118 -265 117 -97 0 -173 -35 -208 -95 -35 -59 -50 -159 -38 -244 11 -73
2 -115 -24 -115 -9 0 -48 5 -86 11 -98 15 -157 0 -215 -56 -52 -49 -55 -72
-19 -159 13 -33 22 -63 19 -68 -3 -4 -67 -7 -142 -6 -123 3 -142 1 -184 -19
-75 -34 -98 -63 -98 -122 0 -65 27 -137 89 -235 28 -44 48 -82 46 -86 -2 -4
-58 -10 -123 -14 -299 -18 -392 -73 -392 -233 0 -121 49 -223 178 -368 63 -70
70 -81 56 -92 -9 -7 -69 -24 -133 -38 -197 -45 -430 -173 -499 -275 -76 -113
-25 -171 245 -279 144 -57 213 -92 213 -106 0 -7 -33 -31 -72 -53 -232 -128
-479 -369 -541 -527 -60 -156 -5 -302 143 -379 46 -24 68 -41 63 -49 -4 -7
-23 -33 -44 -59 -82 -105 -49 -235 69 -268 20 -5 90 -10 155 -10 105 0 117 -2
117 -17 0 -10 -40 -75 -88 -144 -48 -69 -103 -157 -122 -195 -99 -201 -8 -334
229 -334 101 0 176 20 289 76 54 27 97 43 102 38 4 -5 -11 -58 -35 -119 -61
-154 -87 -289 -89 -450 -1 -149 20 -240 74 -313 36 -50 70 -69 141 -77 30 -3
72 -11 95 -16 36 -9 50 -7 120 20 43 17 99 44 123 60 25 17 48 28 51 26 4 -2
10 -35 13 -72 11 -133 78 -263 156 -302 51 -26 130 -41 216 -41 72 0 74 1 128
45 31 25 60 45 66 45 6 0 19 -31 31 -69 20 -69 38 -99 94 -158 25 -27 37 -33
73 -33 79 0 140 32 229 121 l81 81 53 -91 c97 -171 170 -239 278 -262 46 -9
67 -8 121 5 102 25 162 71 228 174 73 115 81 124 103 112 9 -5 33 -43 53 -85
61 -126 203 -306 269 -341 44 -23 117 -18 178 13 139 69 213 206 261 482 27
159 27 161 44 161 8 0 50 -46 92 -102 130 -171 165 -204 278 -259 85 -42 109
-49 158 -49 69 0 123 24 159 72 30 40 78 134 103 203 10 28 21 54 25 58 4 4
44 -8 90 -28 128 -55 152 -58 242 -37 102 25 153 64 172 135 41 147 47 167 50
167 2 0 25 -10 51 -21 92 -41 245 -10 312 63 12 12 34 50 50 83 28 61 30 79
21 245 -3 43 -2 45 22 41 14 -1 68 -23 120 -48 93 -45 97 -45 200 -46 119 -1
150 10 194 67 78 103 93 193 51 316 -27 81 -32 126 -12 133 6 2 32 -2 57 -9
25 -8 57 -14 73 -14 76 0 227 83 278 153 42 57 41 142 -1 222 -16 31 -30 63
-30 70 0 18 129 30 235 21 75 -5 85 -4 115 17 47 31 74 105 65 176 -20 157
-105 323 -302 583 -40 54 -82 113 -93 131 -30 51 -11 62 104 61 120 -2 191
-18 289 -65 45 -21 94 -39 110 -39 40 0 106 39 123 72 30 59 12 177 -44 289
-81 161 -204 319 -320 410 -42 33 -78 64 -80 69 -5 13 58 55 108 74 25 9 106
29 181 45 75 16 159 41 187 55 72 36 169 130 183 174 14 49 -9 158 -50 240
-41 81 -184 210 -286 257 -75 35 -109 64 -100 86 3 8 28 30 56 49 110 75 158
155 159 261 0 56 -5 77 -36 138 -28 57 -54 89 -135 163 -112 104 -113 108 -73
199 23 51 26 68 22 133 -11 175 -171 390 -332 446 -62 22 -166 39 -238 40 -79
0 -80 1 -72 95 7 82 6 82 -29 136 -62 93 -58 91 -152 102 -64 8 -104 8 -157
-1 -39 -7 -73 -10 -76 -7 -3 3 -4 57 -3 120 2 94 -1 120 -15 144 -20 33 -78
68 -171 101 l-63 23 -95 -22 c-125 -29 -183 -69 -308 -210 -152 -173 -176
-179 -189 -50 -12 113 -48 205 -115 287 -86 106 -136 132 -213 112 -37 -10
-61 -28 -135 -107 -102 -107 -101 -107 -144 -9 -42 98 -148 224 -204 245 -33
13 -40 13 -87 -1z m102 -155 c73 -77 143 -220 173 -359 14 -59 16 -105 12
-198 -4 -109 -10 -137 -56 -291 -84 -276 -162 -507 -188 -558 -19 -38 -26 -72
-33 -172 -4 -68 -14 -133 -20 -146 -8 -15 -11 -44 -7 -85 5 -48 3 -65 -9 -74
-19 -17 -101 -7 -123 14 -21 22 -18 84 8 158 54 155 53 393 -4 893 -29 256
-36 348 -33 460 3 135 4 143 36 207 37 76 148 188 185 188 13 0 38 -16 59 -37z
m-438 -119 l70 -65 -13 -87 c-15 -107 -5 -247 40 -552 27 -185 32 -250 35
-460 4 -264 -5 -352 -48 -485 -18 -55 -27 -70 -42 -70 -53 0 -164 486 -183
796 -4 82 -2 128 12 199 24 122 16 187 -40 352 -50 150 -56 211 -28 297 18 57
85 141 111 141 10 -1 48 -30 86 -66z m1015 -21 c106 -120 136 -261 87 -416
-23 -74 -34 -93 -92 -158 -189 -211 -279 -373 -399 -719 -25 -74 -60 -184 -76
-245 -35 -130 -57 -185 -75 -185 -37 0 -29 216 15 395 16 66 73 246 126 400
131 380 127 362 134 570 l6 181 35 58 c40 66 110 143 143 156 40 16 55 10 96
-37z m-1456 11 c31 -31 64 -98 143 -294 l59 -145 -3 -240 c-4 -347 31 -638
109 -913 23 -78 39 -148 36 -156 -6 -16 -78 -35 -170 -45 l-68 -7 -46 50 c-62
69 -125 152 -155 206 -58 100 -65 150 -88 585 -12 232 -38 396 -75 466 -21 40
-24 57 -17 78 5 14 7 55 4 91 -6 92 31 195 100 281 25 30 91 69 118 69 16 0
38 -11 53 -26z m2338 -126 c80 -45 89 -134 25 -264 -59 -118 -146 -239 -262
-364 -152 -164 -165 -182 -229 -310 l-57 -115 -218 -215 c-241 -239 -297 -308
-371 -457 -60 -121 -70 -132 -101 -109 -78 54 -133 105 -136 123 -3 21 69 259
174 573 106 314 181 431 425 660 84 80 222 213 304 296 186 187 240 218 354
208 30 -2 71 -14 92 -26z m-2919 -149 c76 -39 154 -128 203 -232 60 -126 83
-230 95 -422 34 -542 39 -563 194 -810 31 -50 55 -99 54 -109 -5 -29 -46 -55
-142 -87 -48 -16 -91 -29 -96 -29 -6 0 -30 40 -55 89 -24 49 -69 127 -98 173
-104 160 -135 237 -208 511 -27 106 -70 260 -94 342 -59 200 -77 285 -78 375
0 81 19 135 65 176 55 50 96 56 160 23z m3334 -194 c41 -17 69 -71 59 -116
-13 -57 -99 -128 -156 -129 -9 0 -152 -73 -318 -161 -166 -89 -304 -159 -307
-156 -10 10 18 51 85 122 37 38 110 125 164 192 53 67 114 135 134 151 53 41
134 80 201 96 75 19 96 19 138 1z m-3819 -87 c76 -44 174 -142 200 -199 31
-66 64 -174 128 -414 72 -270 119 -393 204 -535 111 -186 146 -266 134 -308
-2 -11 -23 -29 -46 -42 -23 -13 -61 -41 -83 -62 -63 -60 -79 -53 -127 57 -21
50 -44 97 -51 105 -7 8 -28 58 -46 110 -75 215 -264 591 -391 782 -63 94 -79
125 -79 155 -1 21 -7 49 -15 63 -31 54 -13 269 26 317 19 23 80 11 146 -29z
m-509 -171 c39 -27 111 -90 159 -141 180 -188 334 -454 537 -928 41 -95 95
-218 121 -272 27 -55 50 -119 53 -143 4 -40 1 -48 -29 -79 -18 -19 -39 -34
-46 -34 -7 0 -40 33 -73 73 -63 77 -104 113 -310 268 -144 108 -254 214 -362
349 -220 276 -354 552 -365 756 -9 157 33 207 168 202 73 -3 80 -5 147 -51z
m4683 -71 c137 -29 223 -96 286 -223 47 -94 51 -174 12 -248 -29 -56 -43 -60
-131 -35 -87 26 -325 -23 -468 -95 -39 -19 -135 -57 -213 -84 -167 -57 -205
-75 -308 -147 -42 -29 -127 -79 -190 -110 -142 -70 -169 -89 -305 -211 -60
-54 -130 -114 -154 -134 -56 -46 -209 -149 -220 -149 -5 0 -11 8 -14 18 -4 10
-38 50 -76 89 -85 85 -87 98 -30 209 105 209 381 504 655 699 190 135 499 306
677 375 145 56 341 75 479 46z m-5126 -321 c33 -9 70 -26 83 -38 12 -11 46
-66 75 -122 177 -335 366 -569 627 -773 74 -58 166 -130 203 -160 74 -60 177
-177 177 -202 0 -8 -27 -50 -61 -92 -68 -88 -78 -92 -155 -53 -110 55 -417
346 -613 580 -245 294 -511 681 -542 789 -8 29 3 63 25 78 19 13 119 9 181 -7z
m-295 -292 c91 -18 122 -35 157 -88 15 -22 77 -105 138 -185 214 -277 214
-277 35 -210 -41 15 -135 40 -209 54 -162 31 -243 66 -309 134 -101 105 -150
235 -107 282 38 42 132 46 295 13z m5682 -57 c129 -53 254 -172 283 -271 34
-110 -23 -189 -201 -278 -120 -60 -180 -76 -336 -87 -79 -6 -217 -24 -308 -40
-91 -16 -239 -41 -330 -54 -185 -28 -265 -53 -490 -153 -216 -97 -306 -127
-438 -148 l-42 -7 -20 44 c-11 23 -20 55 -20 71 0 22 4 27 25 27 19 0 54 29
138 113 206 206 473 396 752 536 114 56 547 232 615 249 76 19 82 20 200 21
99 0 123 -3 172 -23z m-2880 -407 c11 -6 61 -17 112 -24 105 -14 162 -40 307
-136 177 -119 342 -304 399 -448 23 -60 20 -86 -10 -78 -22 6 -31 -4 -50 -53
-28 -73 -95 -113 -88 -53 2 23 -3 31 -32 45 -19 10 -37 18 -41 18 -8 0 -33
-65 -49 -127 -8 -32 -16 -43 -30 -43 -21 0 -50 35 -50 62 0 30 -30 20 -44 -14
-8 -18 -19 -58 -26 -88 -25 -111 -60 -138 -109 -86 -21 22 -22 27 -10 60 13
36 7 58 -11 40 -6 -6 -27 -55 -46 -110 -43 -121 -54 -134 -110 -134 -24 0 -46
-5 -50 -11 -4 -8 0 -9 15 -4 26 8 70 -35 78 -77 l6 -28 23 26 c27 28 54 26 88
-6 40 -38 -9 -101 -68 -86 -13 3 -28 15 -31 27 -5 14 -12 18 -23 13 -38 -16
-63 -15 -88 1 -23 15 -26 22 -21 61 2 24 1 44 -3 44 -4 0 -19 -16 -34 -35 -32
-42 -84 -55 -120 -31 -36 23 -39 47 -17 113 11 32 18 60 15 62 -8 8 -16 -7
-28 -56 -11 -42 -17 -49 -47 -59 -39 -13 -50 -39 -19 -47 29 -8 25 -29 -18
-81 -29 -35 -37 -53 -34 -74 6 -44 -22 -102 -50 -102 -37 0 -108 26 -178 64
-36 20 -70 36 -77 36 -6 0 -17 -24 -24 -52 -14 -59 -27 -85 -47 -93 -23 -9
-51 14 -60 48 -6 22 -15 33 -31 35 -34 5 -51 -15 -51 -64 0 -74 -51 -104 -99
-58 -12 11 -12 19 -1 54 7 22 11 43 7 46 -9 10 -27 -6 -37 -32 -20 -51 -75
-40 -104 20 -9 20 -21 36 -25 36 -16 0 -39 -36 -52 -79 -15 -51 -26 -57 -74
-41 -28 9 -37 19 -42 41 -8 40 -24 32 -41 -19 -7 -23 -22 -47 -32 -52 -10 -5
-21 -25 -24 -45 -7 -35 -7 -35 -49 -29 -23 4 -46 7 -51 8 -22 3 -14 -25 13
-45 41 -30 39 -39 -6 -38 -76 2 -86 11 -137 115 -25 52 -56 227 -56 318 0 194
65 368 220 588 81 115 280 317 380 385 149 101 359 201 625 298 218 79 319 99
367 74z m-2900 -15 c251 -32 440 -85 578 -164 47 -27 101 -52 120 -55 28 -6
74 -47 240 -215 163 -165 221 -217 285 -255 95 -58 125 -83 125 -106 0 -35
-23 -39 -75 -14 -71 35 -334 108 -537 150 -286 58 -592 95 -907 111 l-144 7
-70 66 c-163 154 -246 316 -203 399 19 36 80 68 156 81 89 14 299 12 432 -5z
m5948 -353 c160 -68 289 -186 330 -305 27 -77 26 -107 -7 -138 -67 -62 -165
-103 -282 -117 -49 -6 -116 -25 -180 -50 -55 -23 -125 -44 -153 -47 -46 -5
-58 -3 -91 20 -58 40 -106 62 -260 122 -78 30 -168 71 -201 91 -49 30 -74 38
-160 49 -57 8 -128 24 -165 39 -52 21 -79 26 -150 25 -83 0 -253 5 -278 8 -26
4 -11 21 50 60 115 72 226 109 452 147 83 15 227 44 321 65 201 46 433 71 619
65 64 -2 96 -9 155 -34z m-5770 -307 c305 -34 657 -103 849 -166 134 -45 208
-87 229 -131 13 -26 11 -37 -12 -102 -14 -40 -26 -82 -26 -93 0 -49 -39 -51
-345 -18 -541 60 -836 57 -1090 -9 l-139 -36 -136 32 c-301 70 -520 170 -520
237 0 26 126 122 210 160 133 61 368 126 508 142 95 11 293 4 472 -16z m3545
-129 c0 -50 -31 -93 -59 -82 -16 7 -23 37 -8 37 5 0 8 20 8 43 -1 25 5 52 13
61 13 16 16 16 30 1 10 -10 16 -33 16 -60z m800 -5 c217 -7 263 -12 353 -34
342 -86 711 -292 955 -534 186 -184 322 -455 243 -485 -8 -3 -41 8 -72 24
-100 54 -306 80 -465 60 -94 -12 -115 -9 -124 19 -3 10 -29 36 -58 58 -29 21
-95 78 -147 127 -184 169 -246 208 -490 304 -85 34 -192 83 -238 110 -61 35
-103 52 -161 64 -84 17 -239 85 -231 102 3 6 12 8 20 6 8 -2 69 -7 135 -11
139 -8 184 -21 390 -116 115 -53 142 -62 152 -51 21 20 6 43 -48 78 -119 76
-319 133 -526 149 -142 12 -163 8 -163 -31 0 -16 -12 -12 -92 26 -50 25 -98
45 -105 45 -20 0 -15 24 10 47 15 14 46 25 97 32 145 22 217 23 565 11z m-948
-45 c7 -20 5 -22 -39 -30 -29 -6 -38 -4 -38 7 0 35 65 54 77 23z m-174 -100
c9 -8 17 -20 20 -27 3 -10 9 -9 24 5 41 36 56 12 28 -47 -16 -32 -16 -32 -88
-32 l-72 1 3 35 c5 67 50 101 85 65z m432 -61 c33 -8 121 -44 195 -79 74 -35
238 -104 363 -154 246 -98 423 -182 533 -253 228 -148 519 -447 750 -773 110
-154 149 -230 164 -318 10 -58 10 -71 -4 -92 -50 -76 -245 -74 -631 5 -117 24
-158 38 -251 84 -122 61 -141 78 -244 230 -111 161 -261 300 -595 551 -126 95
-282 221 -345 280 -63 58 -146 127 -185 152 -134 87 -140 105 -71 186 24 29
53 74 65 102 36 82 54 95 131 95 36 0 93 -7 125 -16z m-606 -83 c15 -10 8 -63
-15 -98 -17 -27 -55 -30 -79 -7 -44 44 41 139 94 105z m158 -25 c2 -2 1 -11
-3 -20 -5 -12 -16 -16 -42 -14 -32 3 -36 0 -47 -31 -16 -48 -35 -52 -35 -8 0
20 9 46 22 62 19 24 26 26 62 21 22 -4 42 -8 43 -10z m-2765 -146 c411 -24
543 -40 563 -66 20 -27 28 -94 16 -126 -6 -16 -12 -28 -13 -29 -2 0 -70 -4
-153 -9 -192 -10 -317 -39 -622 -140 -297 -98 -391 -123 -573 -154 -154 -27
-346 -81 -446 -126 -34 -15 -90 -54 -130 -90 -188 -171 -246 -191 -357 -120
-125 79 -97 262 66 436 173 185 429 318 758 393 243 55 392 61 891 31z m2172
-41 c43 -19 47 -23 44 -51 -2 -17 -10 -35 -19 -41 -23 -15 -66 0 -85 28 -14
21 -14 30 -4 55 7 17 14 30 15 30 1 0 24 -9 49 -21z m179 -48 c45 -17 49 -93
5 -104 -22 -6 -57 8 -70 27 -12 17 -9 61 4 74 14 14 29 15 61 3z m422 -39 c65
-23 136 -71 270 -183 61 -50 204 -164 318 -252 353 -272 519 -425 648 -600
176 -237 333 -561 415 -857 14 -52 37 -129 50 -171 27 -90 22 -124 -29 -191
-68 -89 -160 -88 -350 5 -161 79 -258 146 -372 257 -55 53 -149 135 -210 182
-191 149 -314 291 -432 503 -31 55 -76 128 -100 162 -26 37 -43 73 -43 90 0
30 -33 93 -49 93 -6 0 -26 33 -45 73 -20 40 -49 85 -66 100 -50 45 -130 220
-214 468 -25 74 -46 142 -46 151 0 40 149 188 188 188 10 -1 40 -8 67 -18z
m-599 -62 c32 -24 49 -29 95 -30 83 0 102 -32 53 -90 -21 -24 -33 -30 -58 -28
-18 2 -35 11 -41 23 -9 17 -19 20 -75 18 -72 -1 -110 15 -110 47 0 11 4 20 9
20 5 0 13 10 17 23 17 56 51 62 110 17z m-398 -32 c15 -15 15 -59 1 -92 -21
-45 -59 -44 -79 3 -24 60 37 130 78 89z m154 -59 c34 -14 42 -37 28 -87 -12
-48 -42 -60 -94 -38 -57 24 -75 87 -35 127 21 21 42 21 101 -2z m-637 -33 c41
-17 44 -36 15 -84 -18 -29 -25 -33 -48 -27 -70 17 -91 60 -52 103 24 26 39 27
85 8z m801 -23 c-2 -10 -7 -37 -11 -60 -7 -43 -22 -57 -46 -42 -8 5 -24 9 -36
9 -30 0 -35 12 -22 51 15 45 35 59 82 59 32 0 38 -3 33 -17z m-474 -15 c34
-19 39 -26 36 -53 -2 -24 -8 -31 -29 -33 -36 -4 -79 32 -79 67 0 48 14 51 72
19z m-1064 0 c22 -22 13 -46 -30 -82 -24 -20 -155 -122 -293 -228 -327 -250
-432 -337 -581 -480 -140 -135 -248 -263 -359 -423 -95 -136 -122 -165 -210
-225 -129 -87 -247 -148 -309 -159 -115 -21 -210 -10 -258 28 -51 42 -14 162
108 349 110 170 235 300 419 439 125 94 656 451 800 538 227 137 398 209 537
224 41 5 84 13 94 19 25 15 67 15 82 0z m543 -37 c30 -31 38 -61 16 -61 -24 0
-87 51 -87 70 0 30 37 25 71 -9z m352 -13 c33 -32 37 -61 13 -86 -11 -11 -22
-11 -57 -2 -88 23 -112 61 -68 109 28 30 69 23 112 -21z m874 0 c11 -12 11
-17 0 -32 -15 -21 -82 -24 -117 -6 -29 15 -23 52 10 60 31 8 88 -4 107 -22z
m-576 -1 c16 -34 -4 -79 -34 -75 -15 2 -23 11 -25 30 -7 57 38 91 59 45z m139
-47 c38 -27 38 -36 -2 -60 -40 -24 -71 -25 -92 -4 -16 16 -22 75 -8 88 12 13
70 -1 102 -24z m-832 6 c15 -8 36 -23 46 -35 19 -21 19 -21 -12 -21 -55 0
-103 34 -86 61 7 13 21 11 52 -5z m204 -30 c40 -19 95 -42 122 -52 27 -11 49
-23 48 -28 -3 -12 -196 -8 -229 5 -12 4 -23 16 -23 24 0 9 -7 29 -15 44 -26
52 -2 54 97 7z m325 7 c36 -15 43 -23 43 -45 0 -25 2 -26 29 -17 33 12 71 -2
71 -25 0 -22 -29 -27 -93 -15 -126 22 -163 53 -120 101 20 22 18 22 70 1z
m-1801 -24 c4 -7 0 -15 -8 -20 -8 -5 -57 -40 -109 -78 -52 -38 -193 -133 -314
-211 -258 -166 -338 -223 -460 -325 -49 -42 -119 -90 -155 -108 -60 -30 -72
-32 -185 -35 -100 -3 -126 0 -155 15 -40 20 -50 56 -30 104 17 40 309 312 398
370 112 74 190 98 507 158 114 21 339 83 435 119 65 25 67 25 76 11z m1217
-26 c18 -9 63 -22 102 -29 65 -13 107 -35 92 -50 -4 -4 -40 -9 -80 -12 -86 -5
-127 10 -157 60 -29 49 -13 61 43 31z m1468 -14 c12 -12 34 -50 50 -85 62
-136 89 -190 110 -215 11 -15 27 -56 35 -93 7 -36 24 -83 38 -103 17 -28 29
-74 45 -177 35 -217 81 -327 293 -696 224 -392 258 -459 317 -641 87 -269 77
-443 -29 -501 -44 -24 -141 -20 -197 9 -66 34 -90 82 -122 239 -35 171 -59
222 -208 434 -163 235 -196 304 -232 494 -25 131 -37 242 -61 569 -25 338 -42
455 -86 574 -39 110 -42 144 -13 184 24 35 32 36 60 8z m-1795 -24 c37 -49 28
-73 -54 -138 -136 -109 -305 -304 -567 -652 -302 -403 -334 -458 -428 -730
-30 -88 -67 -191 -82 -230 -21 -54 -28 -91 -30 -162 -3 -82 -6 -96 -28 -122
-14 -17 -27 -49 -31 -75 -14 -91 -107 -142 -247 -134 -83 4 -112 27 -156 121
-25 57 -28 72 -28 172 1 154 56 393 129 557 22 50 213 319 335 473 195 246
442 469 846 764 296 217 295 216 341 156z m1162 -33 c5 -47 -22 -53 -60 -14
-37 36 -29 54 20 50 34 -3 37 -6 40 -36z m-270 -1 c4 -11 -2 -12 -24 -7 -45
11 -55 28 -15 24 19 -2 37 -9 39 -17z m472 -12 c24 -9 49 -9 102 1 63 11 71
10 90 -6 104 -94 151 -314 198 -914 40 -512 62 -581 285 -911 134 -198 170
-267 184 -359 30 -188 -24 -420 -117 -502 -32 -28 -40 -30 -87 -25 -133 14
-248 120 -439 407 -172 258 -332 637 -421 1003 -73 294 -71 404 15 831 26 133
51 267 55 299 4 39 14 66 31 86 13 16 24 35 24 43 0 16 28 58 39 58 4 0 23 -5
41 -11z m-1127 -69 c44 -38 77 -50 138 -50 l49 0 0 -45 c0 -43 -4 -49 -96
-146 -195 -206 -315 -396 -484 -762 -53 -116 -116 -249 -138 -294 -104 -206
-139 -313 -182 -559 -36 -205 -58 -282 -113 -389 -51 -99 -136 -189 -188 -199
-55 -10 -135 11 -175 47 -76 66 -101 165 -111 443 -5 167 -4 190 17 280 67
291 198 554 427 856 170 226 363 458 463 559 135 136 315 289 340 289 11 0 34
-13 53 -30z m521 -38 c58 -37 87 -39 156 -12 69 27 96 26 117 -7 15 -23 18
-49 17 -163 0 -112 -5 -154 -27 -245 -43 -172 -82 -290 -161 -487 -157 -390
-156 -388 -165 -918 l-7 -425 -33 -90 c-18 -49 -51 -125 -74 -169 -32 -62 -47
-81 -74 -92 -18 -8 -44 -32 -58 -53 -47 -70 -114 -80 -214 -30 -102 51 -176
162 -222 334 -27 101 -37 368 -19 513 33 272 89 451 256 819 191 422 232 540
259 753 22 164 46 278 61 291 21 17 75 26 109 19 17 -4 52 -21 79 -38z m-348
-333 c-8 -83 -61 -235 -141 -409 -159 -347 -303 -745 -352 -979 -23 -108 -27
-151 -27 -301 -1 -96 3 -207 8 -246 l9 -71 -30 -18 c-16 -9 -38 -32 -47 -50
-26 -48 -130 -151 -160 -159 -15 -4 -35 -2 -46 4 -46 25 -83 153 -73 253 3 34
1 68 -6 85 -10 25 -9 37 12 83 29 67 49 147 77 309 41 235 73 337 168 527 27
54 77 163 112 243 159 369 243 519 385 688 103 122 121 129 111 41z m1898
-424 c39 -80 72 -131 121 -185 37 -41 87 -105 111 -142 30 -45 66 -82 111
-116 38 -27 136 -112 218 -187 83 -76 185 -164 228 -197 l77 -59 0 -52 c0 -29
7 -88 15 -132 18 -93 13 -137 -21 -183 -80 -104 -246 -91 -312 26 -12 21 -30
77 -41 124 -40 172 -113 325 -312 655 -184 305 -319 579 -296 602 14 14 33
-14 101 -154z m1555 -40 c257 -48 261 -49 261 -88 0 -11 16 -49 36 -84 43 -78
48 -132 14 -168 -27 -29 -104 -59 -173 -69 -42 -6 -54 -4 -102 24 -68 39 -85
61 -125 158 -18 42 -50 109 -71 148 -22 39 -39 78 -39 87 0 24 36 22 199 -8z
m-2845 -77 c3 -13 6 -56 6 -97 0 -174 153 -672 295 -963 l85 -173 0 -101 c0
-210 -70 -477 -155 -588 -30 -39 -97 -76 -138 -76 -15 0 -41 13 -59 29 -43 38
-147 181 -157 218 -5 15 -36 71 -70 123 -57 86 -62 99 -58 135 3 22 10 76 16
120 5 44 10 240 11 435 0 195 5 384 11 420 5 36 25 108 43 160 42 122 149 380
157 380 4 0 9 -10 13 -22z"/>
<path d="M8279 9213 c-7 -18 -8 -50 -3 -88 4 -33 7 -90 6 -127 -1 -38 2 -68 6
-68 12 0 32 149 32 238 0 58 -3 72 -15 72 -9 0 -20 -12 -26 -27z"/>
<path d="M7951 9103 c-2 -83 16 -253 30 -290 12 -32 35 -29 42 5 7 35 -8 214
-24 278 -26 109 -46 111 -48 7z"/>
<path d="M7457 9106 c-11 -29 20 -197 60 -321 34 -105 41 -83 9 28 -14 47 -32
134 -41 194 -9 59 -17 109 -19 111 -2 1 -6 -4 -9 -12z"/>
<path d="M7586 9064 c-14 -37 -4 -113 28 -208 47 -141 92 -236 110 -236 18 0
18 3 -55 167 -46 104 -52 125 -57 204 -5 85 -13 108 -26 73z"/>
<path d="M8872 8962 c-63 -63 -152 -227 -197 -361 -14 -42 -15 -58 -6 -78 16
-34 26 -23 51 55 29 90 96 211 170 307 33 43 59 86 58 94 -6 29 -37 22 -76
-17z"/>
<path d="M7066 9091 c-22 -35 125 -503 150 -478 5 5 -122 450 -136 476 -5 9
-9 10 -14 2z"/>
<path d="M6786 8648 c29 -85 137 -307 150 -312 20 -8 18 3 -21 96 -67 157
-118 258 -131 258 -10 0 -10 -9 2 -42z"/>
<path d="M6221 8693 c142 -145 193 -206 318 -382 46 -64 123 -130 129 -111 2
6 -49 91 -114 188 -156 232 -296 384 -398 430 -38 18 -73 32 -79 32 -6 0 59
-71 144 -157z"/>
<path d="M9235 8633 c-63 -33 -241 -191 -313 -277 -33 -39 -42 -58 -40 -81 5
-54 31 -41 101 47 82 105 220 239 273 266 35 18 54 38 54 58 0 10 -48 2 -75
-13z"/>
<path d="M9283 8486 c-145 -83 -314 -242 -286 -270 19 -18 49 3 124 85 54 58
101 100 133 116 56 28 100 69 91 83 -9 14 -15 13 -62 -14z"/>
<path d="M6070 8190 c0 -5 16 -22 37 -37 20 -15 73 -62 117 -103 119 -109 192
-170 205 -170 38 0 -30 76 -149 166 -36 27 -91 72 -122 101 -54 49 -88 66 -88
43z"/>
<path d="M9831 8279 c-188 -32 -437 -158 -540 -275 -85 -97 -29 -102 79 -8
122 106 401 230 545 241 87 7 95 11 66 34 -25 21 -61 22 -150 8z"/>
<path d="M7684 8091 c-50 -12 -58 -20 -39 -41 15 -16 15 -18 0 -24 -28 -10
-35 -7 -35 15 0 20 -4 21 -42 15 -24 -4 -60 -12 -80 -18 -34 -10 -38 -15 -38
-45 0 -37 -15 -44 -25 -12 -6 17 -12 19 -33 14 -31 -7 -72 -32 -72 -43 0 -4
14 -13 31 -19 44 -17 37 -48 -11 -48 -32 0 -35 3 -35 28 1 31 -11 34 -45 10
-13 -10 -47 -29 -75 -43 -49 -24 -67 -52 -47 -72 6 -6 24 -2 50 11 44 22 87
27 97 11 3 -5 28 -10 54 -10 38 0 52 5 72 26 13 14 38 33 54 41 17 8 42 29 57
46 25 30 30 32 86 30 47 -2 66 2 85 17 14 12 40 20 61 20 32 0 36 3 36 25 0
31 23 33 65 5 35 -23 65 -26 65 -6 0 18 -19 33 -52 41 -15 4 -29 13 -32 21 -6
15 -95 18 -152 5z"/>
<path d="M5412 7987 c-18 -11 -20 -15 -10 -28 27 -32 48 -39 149 -53 130 -19
253 -60 355 -120 89 -52 104 -55 104 -23 0 61 -132 133 -316 171 -66 14 -142
34 -168 46 -54 23 -81 25 -114 7z"/>
<path d="M10005 7820 c-134 -6 -211 -26 -203 -52 7 -19 75 -21 138 -4 30 8 92
15 138 15 46 0 92 3 102 6 39 12 15 48 -28 43 -9 -1 -75 -4 -147 -8z"/>
<path d="M5485 7479 c-118 -8 -188 -24 -210 -49 -26 -28 -5 -30 76 -8 62 18
103 21 254 21 214 1 293 -14 358 -67 73 -58 117 -72 117 -37 0 51 -91 111
-195 130 -79 14 -275 19 -400 10z"/>
<path d="M8874 7225 c-12 -30 5 -41 266 -180 192 -101 405 -238 472 -303 30
-29 52 -43 62 -39 26 10 19 22 -51 84 -195 170 -313 248 -547 362 -102 50
-188 91 -191 91 -3 0 -8 -7 -11 -15z"/>
<path d="M8747 7098 c-4 -13 -2 -25 5 -27 6 -2 27 -18 47 -35 222 -196 679
-444 800 -434 43 4 57 34 19 42 -216 41 -265 62 -422 180 -122 91 -298 211
-361 245 -22 11 -50 28 -61 36 -20 15 -22 14 -27 -7z"/>
<path d="M5785 6996 c-22 -7 -101 -19 -175 -25 -327 -29 -439 -63 -569 -171
-70 -58 -90 -87 -66 -96 10 -4 34 14 73 53 47 50 71 65 137 90 166 63 416 104
651 107 129 1 140 2 136 19 -5 18 -6 18 -62 22 -19 2 -46 5 -60 8 -14 3 -43 0
-65 -7z"/>
<path d="M8546 6844 c-6 -23 2 -36 61 -98 38 -39 92 -101 120 -137 29 -36 81
-92 117 -123 37 -33 104 -110 156 -183 50 -69 135 -175 188 -235 53 -59 109
-129 123 -155 14 -26 31 -49 37 -51 30 -10 6 44 -65 147 -43 61 -103 152 -133
202 -55 91 -114 153 -282 302 -72 63 -191 203 -265 310 -37 54 -48 58 -57 21z"/>
<path d="M8396 6773 c-15 -15 -3 -44 29 -68 58 -45 201 -211 308 -359 56 -78
124 -166 152 -196 30 -33 60 -79 74 -115 14 -33 29 -66 34 -72 13 -17 36 -16
43 1 5 14 -162 303 -229 395 -42 57 -187 228 -273 321 -52 55 -125 105 -138
93z"/>
<path d="M5985 6627 c-131 -75 -409 -281 -476 -354 -50 -53 -66 -79 -79 -124
-16 -53 17 -32 68 44 65 96 121 146 282 254 74 50 149 104 167 121 29 29 85
52 126 52 9 0 17 7 17 15 0 23 -58 18 -105 -8z"/>
<path d="M6078 6308 c-111 -82 -197 -166 -270 -262 -50 -66 -128 -201 -128
-221 0 -18 24 14 50 65 16 32 51 85 76 117 82 102 237 254 307 300 61 40 82
63 58 63 -5 0 -47 -28 -93 -62z"/>
<path d="M7779 6330 c-38 -59 -54 -149 -53 -300 1 -125 6 -169 36 -320 37
-180 54 -238 65 -226 12 12 2 97 -28 242 -34 166 -37 280 -13 441 8 58 14 123
12 146 l-3 42 -16 -25z"/>
<path d="M7876 6247 c-7 -44 7 -194 24 -273 5 -23 16 -86 24 -139 16 -102 36
-148 61 -139 20 8 19 29 -5 105 -10 35 -26 138 -35 229 -22 229 -27 254 -46
258 -13 2 -18 -8 -23 -41z"/>
<path d="M6457 6195 c-77 -64 -168 -174 -229 -278 -42 -72 -120 -248 -113
-256 13 -13 39 20 84 109 77 149 184 303 273 392 43 43 78 80 78 83 0 17 -35
-2 -93 -50z"/>
<path d="M7075 6200 c-3 -5 -10 -42 -15 -82 -11 -97 -97 -310 -200 -496 -50
-90 -61 -127 -37 -120 34 11 198 297 252 443 27 72 50 213 40 246 -7 20 -30
26 -40 9z"/>
<path d="M7227 6186 c-25 -38 -65 -249 -54 -280 13 -33 36 -16 51 37 21 74 48
237 42 253 -8 21 -22 17 -39 -10z"/>
<path d="M13056 10249 c-219 -54 -375 -279 -337 -484 25 -133 112 -251 227
-305 95 -46 164 -34 164 27 0 41 -14 55 -84 87 -83 38 -145 101 -165 167 -30
99 -3 214 64 279 l33 32 97 -189 c160 -308 174 -332 207 -349 40 -21 73 -12
139 40 98 77 159 195 159 308 0 65 -28 159 -64 217 -37 58 -121 128 -184 152
-65 24 -195 34 -256 18z m211 -134 c61 -26 98 -60 131 -123 56 -105 51 -185
-19 -273 -62 -78 -55 -85 -183 165 -64 123 -116 226 -116 229 0 20 141 21 187
2z"/>
<path d="M13680 9470 c-24 -24 -26 -70 -5 -111 12 -23 13 -30 3 -34 -136 -49
-534 -185 -542 -185 -7 0 -17 20 -24 44 -9 34 -18 46 -42 56 -28 11 -34 11
-58 -7 -36 -27 -38 -50 -9 -114 25 -58 49 -127 67 -196 13 -52 33 -73 69 -73
55 0 77 59 46 121 -18 34 -30 27 155 90 83 29 130 39 175 39 108 0 241 -52
285 -112 22 -29 22 -32 6 -58 -51 -88 26 -184 117 -146 133 55 51 278 -135
371 l-71 35 36 15 c20 8 41 15 46 15 6 0 18 11 27 25 15 24 15 30 -10 118 -27
97 -49 127 -92 127 -13 0 -33 -9 -44 -20z"/>
<path d="M1695 9152 c-99 -61 -169 -210 -169 -362 -1 -76 3 -91 29 -139 53
-97 160 -142 247 -103 64 28 118 91 194 224 79 138 131 193 172 183 104 -24
104 -225 0 -366 -18 -23 -24 -25 -69 -21 -60 6 -92 -13 -109 -62 -24 -74 45
-147 124 -130 132 29 266 253 266 445 0 164 -85 269 -218 271 -101 0 -170 -61
-274 -244 -71 -124 -116 -178 -148 -178 -12 0 -35 14 -52 30 -29 30 -30 32
-26 113 2 56 10 95 23 122 19 38 22 40 59 37 93 -8 150 64 114 143 -24 53
-106 71 -163 37z"/>
<path d="M13946 8602 c-19 -22 -22 -40 -11 -97 l7 -40 -269 -58 c-147 -31
-276 -57 -285 -57 -14 0 -18 8 -18 34 0 69 -64 108 -118 70 -28 -20 -28 -46 3
-168 14 -54 25 -112 25 -128 0 -76 47 -120 104 -98 39 14 50 44 36 96 -7 25
-11 47 -8 49 2 2 141 34 309 70 291 63 305 67 333 97 28 30 28 33 22 112 -8
98 -27 130 -78 134 -24 2 -39 -3 -52 -16z"/>
<path d="M14244 8546 c-26 -26 -34 -42 -34 -71 0 -29 8 -45 34 -71 45 -45 92
-47 138 -5 28 25 33 36 33 76 0 40 -5 51 -33 76 -46 42 -93 40 -138 -5z"/>
<path d="M2273 8275 c-17 -12 -23 -26 -23 -54 0 -56 26 -75 111 -79 49 -3 69
-8 69 -18 0 -7 -12 -89 -26 -181 -14 -92 -45 -305 -69 -472 -24 -167 -45 -305
-47 -307 -4 -3 -1200 180 -1246 191 -21 5 -22 9 -16 74 6 64 5 69 -17 85 -33
23 -66 20 -94 -9 -21 -20 -25 -34 -25 -83 0 -33 -7 -99 -16 -148 -22 -123 -22
-144 5 -166 52 -41 121 -2 121 70 l0 38 468 -72 c257 -40 545 -85 641 -100
l173 -27 -6 -40 c-11 -69 45 -121 105 -97 36 15 49 49 49 127 0 36 34 312 75
613 53 384 73 555 66 571 -20 53 -87 82 -216 95 -47 4 -65 2 -82 -11z"/>
<path d="M1647 8250 c-116 -20 -232 -101 -281 -197 -106 -210 -19 -452 201
-556 64 -30 74 -32 183 -32 109 0 119 2 182 32 216 102 306 349 204 557 -31
63 -79 116 -104 116 -11 0 -31 -9 -46 -21 -31 -25 -34 -66 -7 -100 28 -37 58
-100 65 -142 16 -87 -33 -201 -111 -259 -37 -28 -139 -65 -150 -54 -3 3 11
134 32 291 31 242 35 291 25 316 -23 54 -78 68 -193 49z m60 -167 c-3 -21 -18
-135 -33 -253 -15 -118 -29 -217 -30 -219 -6 -7 -64 21 -102 49 -20 14 -50 50
-65 79 -24 43 -29 64 -29 121 0 152 93 252 241 259 22 1 23 -2 18 -36z"/>
<path d="M14066 8029 c-26 -21 -28 -26 -24 -88 l3 -66 -245 -26 c-305 -32
-309 -33 -359 -69 -55 -40 -81 -94 -81 -167 1 -132 85 -213 220 -213 55 0 80
21 80 67 0 39 -25 60 -80 69 -52 8 -68 19 -81 52 -12 32 -1 70 25 84 21 11
527 70 535 62 3 -2 10 -52 16 -111 10 -82 17 -109 31 -120 26 -19 68 -16 89 7
17 19 18 29 7 128 -6 59 -9 108 -7 110 2 2 61 10 132 18 162 17 169 19 189 49
20 31 12 69 -20 90 -21 14 -37 14 -165 0 -78 -9 -145 -13 -150 -11 -5 3 -11
31 -13 61 -3 31 -11 62 -19 69 -27 26 -55 27 -83 5z"/>
<path d="M13685 7237 c-198 -66 -314 -230 -303 -427 8 -135 101 -290 174 -290
23 0 38 7 48 22 24 33 20 61 -15 104 -59 74 -74 113 -74 194 0 65 4 82 29 128
32 57 82 103 140 127 72 31 69 49 60 -280 -6 -267 -5 -297 10 -320 25 -39 57
-47 134 -35 136 22 244 93 300 198 108 202 27 444 -184 549 -69 33 -83 37
-177 40 -67 2 -116 -2 -142 -10z m254 -142 c98 -34 160 -114 168 -218 9 -110
-27 -190 -107 -239 -25 -15 -64 -30 -88 -34 l-44 -7 7 204 c5 194 13 309 19
309 2 0 22 -7 45 -15z"/>
<path d="M1648 5214 c-5 -4 -8 -15 -8 -25 0 -14 13 -18 78 -24 42 -3 88 -7
101 -8 21 -2 29 -17 72 -140 l48 -138 -42 -37 c-88 -78 -107 -100 -101 -117 4
-9 14 -15 24 -13 30 5 500 426 500 448 0 25 -12 26 -290 40 -124 6 -259 13
-300 16 -41 3 -78 3 -82 -2z m520 -73 l64 -6 -123 -108 c-85 -74 -125 -103
-130 -95 -4 7 -23 59 -43 116 l-35 102 102 -1 c56 -1 131 -4 165 -8z"/>
<path d="M13204 5176 c-41 -18 -100 -89 -118 -144 -42 -123 -1 -222 105 -254
69 -20 106 -1 206 108 99 108 130 129 179 120 108 -21 112 -182 7 -277 -23
-21 -50 -40 -62 -44 -31 -10 -29 -55 2 -55 25 0 86 40 124 81 58 64 84 200 50
265 -28 54 -92 94 -150 94 -47 0 -107 -43 -173 -121 -36 -44 -80 -89 -97 -100
-61 -38 -140 -3 -153 68 -14 73 38 173 108 209 21 11 28 21 26 36 -4 27 -16
30 -54 14z"/>
<path d="M2364 4470 c-102 -21 -193 -90 -241 -183 -22 -43 -27 -65 -27 -132
-1 -67 3 -90 26 -137 45 -96 154 -186 179 -147 6 10 -7 28 -47 63 -94 83 -129
181 -99 281 40 140 210 234 350 195 98 -27 185 -142 185 -245 0 -63 12 -85 37
-69 15 10 18 24 15 75 -4 117 -69 217 -175 268 -68 34 -140 44 -203 31z"/>
<path d="M12765 4309 c-73 -135 -85 -163 -74 -174 29 -27 515 -286 533 -283
22 4 190 303 182 324 -3 8 -13 14 -23 14 -13 0 -39 -38 -87 -128 -38 -70 -73
-132 -78 -138 -6 -8 -40 5 -113 45 -58 31 -105 60 -105 64 0 5 27 58 61 118
60 109 68 141 38 147 -12 2 -35 -30 -79 -110 -34 -62 -65 -117 -70 -122 -7 -6
-127 53 -189 93 -10 7 2 38 62 146 42 76 73 144 70 151 -3 8 -13 14 -23 14
-13 0 -42 -45 -105 -161z"/>
<path d="M2956 3804 c-4 -10 15 -45 51 -94 31 -43 56 -81 55 -85 0 -4 -101
-81 -224 -172 -123 -91 -225 -169 -226 -174 -4 -10 16 -39 27 -39 4 0 110 76
235 170 l229 169 60 -79 c58 -79 97 -103 97 -62 0 23 -267 382 -284 382 -8 0
-17 -7 -20 -16z"/>
<path d="M12437 3767 c-3 -8 60 -125 140 -261 80 -136 144 -248 142 -250 -2
-1 -128 30 -279 69 -151 40 -281 70 -288 67 -7 -2 -12 -14 -10 -26 3 -18 37
-29 318 -103 173 -45 321 -80 328 -78 6 3 12 13 12 23 0 11 -71 142 -159 293
-115 198 -164 275 -178 277 -11 2 -23 -3 -26 -11z"/>
<path d="M3320 2913 c-162 -153 -220 -213 -218 -228 2 -11 10 -21 18 -23 15
-2 148 118 367 331 79 76 91 92 82 108 -5 11 -14 19 -19 19 -6 0 -109 -93
-230 -207z"/>
<path d="M11833 3043 c-7 -2 -13 -12 -13 -22 0 -25 426 -433 447 -429 44 8 18
42 -193 247 -120 116 -220 211 -223 210 -4 0 -12 -3 -18 -6z"/>
<path d="M3863 2768 c-4 -7 -49 -150 -100 -318 -80 -260 -91 -306 -79 -318 12
-12 56 8 307 141 223 117 294 159 294 173 0 10 -8 20 -17 22 -10 2 -128 -56
-263 -128 -135 -73 -248 -130 -251 -127 -3 3 31 125 76 272 45 147 79 273 76
281 -7 17 -32 18 -43 2z"/>
<path d="M11345 2599 c-176 -141 -210 -173 -201 -188 14 -21 38 -10 110 49
l73 59 21 -22 c11 -12 91 -110 177 -217 117 -145 162 -195 178 -195 14 0 22 6
22 17 0 10 -76 113 -170 229 -93 117 -171 215 -173 219 -2 5 31 36 73 70 73
60 91 91 55 97 -8 1 -82 -52 -165 -118z"/>
<path d="M4628 2193 c-27 -31 -310 -484 -315 -504 -8 -27 24 -36 47 -13 16 17
282 433 310 483 9 17 9 26 -1 37 -15 18 -23 18 -41 -3z"/>
<path d="M10647 2113 c-4 -3 -7 -18 -7 -32 0 -50 90 -625 99 -634 14 -14 41 0
40 20 0 10 -6 54 -13 98 -8 44 -13 81 -12 81 0 1 58 35 127 76 l126 75 78 -58
c43 -33 82 -59 85 -59 4 0 13 7 20 16 11 13 10 19 -11 38 -38 37 -506 386
-516 386 -5 0 -13 -3 -16 -7z m176 -174 c67 -51 126 -95 131 -100 7 -6 -152
-108 -196 -124 -13 -5 -19 20 -37 142 -13 81 -24 154 -26 161 -3 6 -2 12 1 12
3 0 60 -41 127 -91z"/>
<path d="M5040 1960 c-26 -16 1 -42 85 -81 47 -21 85 -43 85 -48 0 -4 -54
-122 -121 -261 -109 -230 -119 -254 -105 -269 14 -13 18 -13 31 -1 8 8 67 125
131 260 64 135 118 246 119 248 1 1 41 -16 89 -38 98 -45 116 -48 116 -19 0
16 -34 37 -187 110 -226 109 -226 109 -243 99z"/>
<path d="M9963 1923 c-14 -5 -73 -104 -73 -122 0 -6 6 -11 14 -11 19 0 96 88
96 110 0 19 -17 30 -37 23z"/>
<path d="M9908 1743 c-127 -53 -158 -70 -158 -85 0 -24 208 -538 226 -557 11
-12 29 -7 121 29 183 74 233 98 233 115 0 31 -31 25 -174 -33 l-145 -60 -30
72 c-51 124 -64 157 -60 160 2 1 58 24 124 51 112 46 134 58 135 78 0 23 -44
15 -149 -27 -64 -25 -121 -46 -127 -46 -10 0 -99 200 -91 205 1 1 67 28 147
61 118 48 145 63 145 79 0 34 -32 27 -197 -42z"/>
<path d="M6123 1651 c-85 -33 -79 -57 12 -46 63 8 91 25 82 49 -8 20 -39 19
-94 -3z"/>
<path d="M5773 1323 c-55 -176 -87 -294 -82 -303 4 -8 81 -37 176 -67 147 -45
170 -50 183 -38 24 25 -3 39 -155 85 -77 23 -142 44 -144 46 -6 5 69 234 77
234 4 0 63 -18 132 -40 110 -35 127 -38 140 -25 23 24 -1 38 -135 80 -66 20
-122 38 -123 40 -4 3 57 207 63 213 2 2 71 -18 155 -43 113 -35 155 -44 163
-36 8 8 8 17 2 27 -10 16 -302 113 -341 114 -19 0 -30 -31 -111 -287z"/>
<path d="M9010 1456 c-87 -21 -126 -36 -128 -46 -3 -17 122 -541 138 -577 11
-26 38 -30 46 -8 4 8 -6 65 -21 125 -15 60 -25 116 -22 123 6 15 176 57 234
57 34 0 46 -6 67 -31 14 -17 31 -51 38 -76 19 -79 97 -144 115 -97 4 10 -4 24
-20 37 -14 12 -33 46 -42 77 -23 71 -50 109 -91 126 l-33 14 24 26 c72 78 48
216 -46 264 -52 27 -109 24 -259 -14z m224 -31 c88 -42 87 -194 0 -234 -28
-12 -226 -63 -230 -58 -9 9 -62 243 -56 249 9 8 199 55 230 57 13 1 38 -6 56
-14z"/>
<path d="M6725 1391 c-95 -24 -149 -110 -126 -199 14 -49 46 -79 156 -141 111
-63 135 -89 135 -142 0 -22 -5 -49 -10 -60 -26 -47 -133 -65 -208 -34 -20 9
-58 37 -84 62 -40 39 -49 44 -63 33 -22 -18 -19 -26 25 -74 54 -58 126 -89
211 -89 115 -2 189 62 189 163 0 79 -41 124 -181 200 -124 67 -151 130 -85
196 31 31 39 34 93 34 69 0 127 -24 165 -68 50 -57 82 -12 33 46 -45 54 -176
92 -250 73z"/>
<path d="M8219 1337 c-205 -58 -297 -275 -200 -472 55 -110 153 -169 283 -169
67 0 85 5 145 35 67 34 90 63 59 75 -8 3 -43 -8 -77 -25 -151 -75 -323 -12
-374 138 -8 24 -15 74 -15 110 0 194 170 306 367 244 39 -12 56 -14 64 -6 47
47 -145 100 -252 70z"/>
</g>
</svg>
